<?xml version="1.0" encoding="UTF-8"?>
<svg id="_レイヤー_1" data-name="レイヤー 1" xmlns="http://www.w3.org/2000/svg" viewBox="0 0 158.33 70.85">
  <rect x="2.18" y="53.07" width="154.84" height="13.62" fill="#005bac"/>
  <g>
    <rect x="77" y="20.77" width="11.93" height="27.38" fill="#005bac"/>
    <polygon points="3.21 4.51 32.34 48.15 44.34 30.17 27.2 4.51 3.21 4.51" fill="#ed6c00"/>
    <polygon points="32.53 4.51 47 26.18 53.56 16.36 45.65 4.51 32.53 4.51" fill="#ed6c00"/>
    <polygon points="55.49 13.47 61.47 4.51 49.5 4.51 55.49 13.47" fill="#ed6c00"/>
    <polygon points="83.18 20.68 94.15 4.51 72.2 4.51 83.18 20.68" fill="#005bac"/>
    <path d="M130.32,1.57c-14.66,0-26.54,11.03-26.54,24.65s11.88,24.65,26.54,24.65,26.54-11.03,26.54-24.65S144.98,1.57,130.32,1.57ZM130.32,39.07c-7.09,0-12.85-5.75-12.85-12.85s5.75-12.85,12.85-12.85,12.84,5.75,12.84,12.85-5.75,12.85-12.84,12.85Z" fill="#ed6c00"/>
  </g>
  <g>
    <g>
      <path d="M139.85,56.41v-1.22h-1.66v1.22h-6.65v1.66h3.62c-.17,2.07-1.71,4.23-3.72,4.35v1.66c1.79-.48,3-1.22,3.78-2.09.72-.81,1.49-2.35,1.6-3.92h1.36v5.93h1.66v-5.93h1.44v-1.66h-1.44Z" fill="#fff"/>
      <path d="M122.79,59.29v1.61c1.31,0,2.49-.13,3.59-.39v3.49h1.65v-4.03c1.31-.59,2.34-1.58,2.66-2.79h-1.65c-1.24,1.67-3.16,2.28-6.25,2.12Z" fill="#fff"/>
      <rect x="122.35" y="55.19" width="1.01" height="1.53" fill="#fff"/>
      <rect x="123.96" y="55.19" width="1.01" height="1.53" fill="#fff"/>
      <path d="M120.17,56.33h-2.07v-1.14h-1.65v1.14h-3.57v3.18h1.65v-1.52h5.28c.67.04.89.26.9.82.02,1.09-.48,2.29-1.53,2.99-1.04.7-3.51.85-5.69.69v1.56c2.88,0,4.22-.05,5.4-.45,1.18-.39,2.31-1.21,2.79-2.13.57-1.09.77-2.09.64-3.22-.13-1.13-.93-1.91-2.16-1.91Z" fill="#fff"/>
      <rect x="16.16" y="55.18" width="5.32" height="1.51" fill="#fff"/>
      <polygon points="37.21 60.25 36.35 56.79 34.84 56.79 35.7 60.25 37.21 60.25" fill="#fff"/>
      <polygon points="39.51 60.25 38.66 56.79 37.15 56.79 38 60.25 39.51 60.25" fill="#fff"/>
      <path d="M31.59,56.98h-5.09v1.51h4.65c.59,0,1.07.48,1.07,1.07v.19h-5.73v1.51h5.73v1.28h-5.73v1.51h7.24v-4.92c0-1.18-.97-2.15-2.15-2.15Z" fill="#fff"/>
      <rect x="16.16" y="57.76" width="5.32" height="1.51" fill="#fff"/>
      <path d="M21.81,61.7c-1.55.77-3.16.69-5.53.69v1.51c3.03,0,5.72-.12,7.24-1.31,1.38-1.08,1.94-2.63,1.94-5.83h-1.51c-.04,2.6-.39,4.07-2.14,4.94Z" fill="#fff"/>
      <rect x="54.62" y="55.18" width="5.62" height="1.51" fill="#fff"/>
      <rect x="88.71" y="58.5" width="8.59" height="1.51" fill="#fff"/>
      <path d="M78.2,56.68h2.31v1.82h-2.31v1.51h2.31v1.79c0,1.18.97,2.15,2.15,2.15h4.71v-1.51h-4.27c-.59,0-1.08-.49-1.08-1.08v-1.35h5.63v-1.51h-5.63v-1.82h5.63v-1.51h-9.45v1.51Z" fill="#fff"/>
      <path d="M60.27,61.7c-1.55.77-3.16.69-5.53.69v1.51c3.03,0,5.72-.12,7.24-1.31,1.39-1.08,1.94-2.63,1.94-5.83h-1.51c-.04,2.6-.39,4.07-2.13,4.94Z" fill="#fff"/>
      <path d="M39.16,61.81c-1.03.51-1.89.62-3.49.58v1.48c2.38.07,4.05-.27,5.2-1.17,1.38-1.08,1.84-2.73,1.84-5.93h-1.51c-.04,2.6-.29,4.17-2.03,5.04Z" fill="#fff"/>
      <path d="M52.27,53.98c-.82,0-1.49.67-1.49,1.49,0,.52.26.97.66,1.24h-5.91v-1.57h-1.51v6.66c0,1.18.96,2.15,2.15,2.15h6.74v-1.51h-6.3c-.59,0-1.08-.49-1.08-1.08v-3.15h7.38v-1.41c.51-.24.86-.75.86-1.34,0-.82-.67-1.49-1.49-1.49ZM52.27,56.22c-.42,0-.76-.34-.76-.76s.34-.75.76-.75.76.34.76.75-.34.76-.76.76Z" fill="#fff"/>
      <path d="M72.31,55.15h-5.43c-.05,1.41-.52,2.37-1.85,2.57v1.51c1.65.01,2.66-.79,3.15-2.37h3.71c.77,0,.97.24.97.76s0,1.5,0,2.26c0,.98-.94,2.07-1.84,2.25-.9.18-3.52.21-4.96.21v1.61c2.81,0,4.8-.02,6.35-.68,1.55-.66,2.25-2.41,2.25-3.61s.04-2.46-.26-3.17c-.3-.72-1.01-1.33-2.09-1.33Z" fill="#fff"/>
      <rect x="74.59" y="54.57" width="1.03" height="1.59" fill="#fff"/>
      <rect x="76.35" y="54.57" width="1.03" height="1.59" fill="#fff"/>
    </g>
    <g>
      <path d="M98.83,58.81c0,.97-.02,2.05-.19,2.48-.17.43-.81,1.06-1.58,1.16v1.49c1.43-.12,2.23-.7,2.71-1.23.48-.54.64-1.34.64-2.04v-5.5h-1.58v3.65Z" fill="#fff"/>
      <path d="M105.32,61.53c-.31.36-.79.64-1.73.7v-7.07h-1.51v8.79h1.51c1.2-.01,2.35-.72,2.98-1.44.56-.64.94-1.9.94-4.24h-1.61c.19,1.2-.05,2.63-.59,3.26Z" fill="#fff"/>
    </g>
  </g>
</svg>